<svg id="Слой_1" xmlns="http://www.w3.org/2000/svg" xmlns:xlink="http://www.w3.org/1999/xlink" viewBox="0 0 102.3 19.3"><style>.st0{opacity:.8}.st1{fill:#f07e23}.st2,.st3{opacity:.8;clip-path:url(#SVGID_2_)}.st3{clip-path:url(#SVGID_4_)}.st4,.st5,.st6{opacity:.8;clip-path:url(#SVGID_6_)}.st5,.st6{clip-path:url(#SVGID_8_)}.st6{clip-path:url(#SVGID_10_)}.st7,.st8,.st9{opacity:.8;clip-path:url(#SVGID_12_)}.st8,.st9{clip-path:url(#SVGID_14_)}.st9{clip-path:url(#SVGID_16_)}.st10,.st11{opacity:.8;clip-path:url(#SVGID_18_)}.st11{clip-path:url(#SVGID_20_)}</style><g class="st0"><g transform="translate(-1078 -714)" class="st0"><path id="cym0b" class="st1" d="M1137.8 722.5c0-3.8 2.8-6.7 6.3-6.7 1.8 0 3.4.8 4.5 2.1l-1.1 1.1c-.8-1.1-2.1-1.7-3.4-1.6-2.6 0-4.7 2-4.7 5.1s2.2 5.1 4.8 5.1c1.5 0 2.8-.8 3.8-1.9l1.1 1.1c-1.2 1.5-3 2.3-4.8 2.3-3.8.1-6.5-2.8-6.5-6.6"/></g><g transform="translate(-1078 -714)"><defs><path id="SVGID_1_" d="M1069.8 706.8h119v35h-119z"/></defs><clipPath id="SVGID_2_"><use xlink:href="#SVGID_1_" overflow="visible"/></clipPath><g class="st2"><path id="cym0d" class="st1" d="M1150.2 728.8h1.7v-12.5h-1.7v12.5z"/></g></g><g transform="translate(-1078 -714)"><defs><path id="SVGID_3_" d="M1069.8 706.8h119v35h-119z"/></defs><clipPath id="SVGID_4_"><use xlink:href="#SVGID_3_" overflow="visible"/></clipPath><g class="st3"><path id="cym0e" class="st1" d="M1161.8 724.3c0 2.6-1.8 4.5-4.4 4.5s-4.3-1.9-4.3-4.5 1.8-4.5 4.3-4.5c2.6-.1 4.4 1.9 4.4 4.5m-1.6 0c0-2-1.3-3.1-2.8-3.1-1.4 0-2.8 1.1-2.8 3.1 0 1.9 1.3 3.1 2.8 3.1 1.5-.1 2.8-1.2 2.8-3.1"/></g></g><g transform="translate(-1078 -714)"><defs><path id="SVGID_5_" d="M1069.8 706.8h119v35h-119z"/></defs><clipPath id="SVGID_6_"><use xlink:href="#SVGID_5_" overflow="visible"/></clipPath><g class="st4"><path id="cym0f" class="st1" d="M1169 728.5v-1.2h-.1c-.5.8-1.5 1.5-2.7 1.5-2.2 0-3.2-1.5-3.2-3.7v-5.4h1.6v5.1c0 1.8.9 2.5 2.1 2.5 1.4 0 2.2-1.4 2.2-2.7v-4.8h1.6v8.8h-1.5z"/></g></g><g transform="translate(-1078 -714)"><defs><path id="SVGID_7_" d="M1069.8 706.8h119v35h-119z"/></defs><clipPath id="SVGID_8_"><use xlink:href="#SVGID_7_" overflow="visible"/></clipPath><g class="st5"><path id="cym0g" class="st1" d="M1171.8 724.6c0-2.7 1.8-4.6 3.9-4.6 1.3 0 2.3.7 2.8 1.5h.1l-.1-1.2v-4h1.6V729h-1.5v-1.2h-.1c-.5.8-1.5 1.5-2.8 1.5-2.1-.1-3.9-2-3.9-4.7m6.8 0c0-2-1.2-3.1-2.6-3.1s-2.6 1.2-2.6 3.1 1.3 3.1 2.6 3.1 2.6-1.1 2.6-3.1"/></g></g><g transform="translate(-1078 -714)"><defs><path id="SVGID_9_" d="M1069.8 706.8h119v35h-119z"/></defs><clipPath id="SVGID_10_"><use xlink:href="#SVGID_9_" overflow="visible"/></clipPath><g class="st6"><path id="cym0h" class="st1" d="M1078.5 721.9c0-4 3.1-7.3 7.1-7.3 2.2 0 3.7.9 4.8 2l-1.4 1.4c-.9-.9-2.2-1.4-3.5-1.4-2.8 0-5 2.4-5 5.3 0 3 2.2 5.3 5 5.3 1.3.1 2.6-.5 3.6-1.5.6-.6.9-1.4 1-2.5h-4.6v-2h6.5c.1.3.1.8.1 1.3 0 1.5-.4 3.4-1.7 4.7-1.2 1.4-3 2.1-4.9 2-3.9-.1-7.1-3.3-7-7.3"/></g></g><g transform="translate(-1078 -714)"><defs><path id="SVGID_11_" d="M1069.8 706.8h119v35h-119z"/></defs><clipPath id="SVGID_12_"><use xlink:href="#SVGID_11_" overflow="visible"/></clipPath><g class="st7"><path id="cym0i" class="st1" d="M1097.5 719.7c-2.5 0-4.6 2-4.6 4.8-.1 2.5 1.9 4.7 4.4 4.8h.1c2.5 0 4.6-2.1 4.6-4.6v-.1c.1-2.5-1.9-4.7-4.4-4.7 0-.2 0-.2-.1-.2m0 7.6c-1.4 0-2.6-1.2-2.6-2.9s1.2-2.9 2.6-2.9 2.6 1.2 2.6 2.9c0 1.8-1.2 2.9-2.6 2.9"/></g></g><g transform="translate(-1078 -714)"><defs><path id="SVGID_13_" d="M1069.8 706.8h119v35h-119z"/></defs><clipPath id="SVGID_14_"><use xlink:href="#SVGID_13_" overflow="visible"/></clipPath><g class="st8"><path id="cym0j" class="st1" d="M1107.5 719.7c-2.5 0-4.6 2-4.6 4.8-.1 2.5 1.9 4.7 4.4 4.8h.1c2.5 0 4.6-2.1 4.6-4.6v-.1c.1-2.5-1.9-4.7-4.4-4.7 0-.2-.1-.2-.1-.2m0 7.6c-1.4 0-2.6-1.2-2.6-2.9s1.2-2.9 2.6-2.9 2.6 1.2 2.6 2.9c-.1 1.8-1.2 2.9-2.6 2.9"/></g></g><g transform="translate(-1078 -714)"><defs><path id="SVGID_15_" d="M1069.8 706.8h119v35h-119z"/></defs><clipPath id="SVGID_16_"><use xlink:href="#SVGID_15_" overflow="visible"/></clipPath><g class="st9"><path id="cym0k" class="st1" d="M1119.3 720v.8h-.1c-.6-.7-1.5-1.1-2.4-1-2.3 0-4.3 2-4.3 4.6 0 2.6 2.1 4.6 4.3 4.6 1.1 0 1.9-.5 2.4-1h.1v.7c0 1.8-.9 2.7-2.4 2.7-1.2 0-2-.9-2.3-1.6l-1.7.7c.7 1.7 2.3 2.7 4 2.7 2.3 0 4.3-1.4 4.3-4.8V720h-1.9zm-2.3 7.1c-1.4 0-2.5-1.2-2.5-2.8 0-1.6 1.2-2.8 2.5-2.8s2.4 1.2 2.4 2.8c0 1.7-1.1 2.8-2.4 2.8z"/></g></g><g transform="translate(-1078 -714)"><defs><path id="SVGID_17_" d="M1069.8 706.8h119v35h-119z"/></defs><clipPath id="SVGID_18_"><use xlink:href="#SVGID_17_" overflow="visible"/></clipPath><g class="st10"><path id="cym0l" class="st1" d="M1122.8 728.8h2.1V715h-2.1v13.8z"/></g></g><g transform="translate(-1078 -714)"><defs><path id="SVGID_19_" d="M1069.8 706.8h119v35h-119z"/></defs><clipPath id="SVGID_20_"><use xlink:href="#SVGID_19_" overflow="visible"/></clipPath><g class="st11"><path id="cym0m" class="st1" d="M1130.2 727.3c-1 0-1.7-.5-2.2-1.5l6-2.6-.2-.5c-.4-1.1-1.5-3-3.8-3s-4.2 1.9-4.2 4.8c0 2.7 1.9 4.8 4.5 4.8 1.5 0 2.9-.8 3.8-2.1l-1.5-1.1c-.7.7-1.4 1.2-2.4 1.2m-.2-5.8c.8 0 1.4.4 1.7 1l-4 1.8c-.1-1.8 1.3-2.8 2.3-2.8"/></g></g></g></svg>